<svg viewBox="383 246.2529 414.2642 107.0941" width="5000" height="1292.5821251269115" xmlns="http://www.w3.org/2000/svg" xmlns:xlink="http://www.w3.org/1999/xlink" preserveAspectRatio="none"><defs></defs><style>.companyName {fill:#08376B;fill-opacity:1;}.icon1 {fill:#35C0ED;fill-opacity:1;}.icon2 {fill:#9AEBA6;fill-opacity:1;}.icon3 {fill:#2F90B0;fill-opacity:1;}.icon3-str {stroke:#2F90B0;stroke-opacity:1;}.shapeStroke-str {stroke:#08376B;stroke-opacity:1;}.text {fill:#08376B;fill-opacity:1;}</style><g opacity="1" transform="rotate(0 383 254.9834)">
<svg width="128.2981" height="89.6331" x="383" y="254.9834" version="1.1" preserveAspectRatio="none" viewBox="2.947999954223633 17.28700065612793 94.10400390625 65.7439956665039">
  <g transform="matrix(1 0 0 1 0 0)" class="icon1"><path d="M41.492,20.287c7.653,0,14.313,4.217,17.811,10.448c1.229-0.389,2.535-0.601,3.893-0.601c5.82,0,10.735,3.858,12.34,9.155  c10.384,0.961,18.517,9.689,18.517,20.323c0,11.278-9.143,20.42-20.42,20.42H26.368c-11.277,0-20.42-9.142-20.42-20.42  c0-9.457,6.438-17.39,15.165-19.712C21.54,28.999,30.487,20.287,41.492,20.287 M41.492,17.287c-11.893,0-21.701,8.784-23.197,20.36  C9.16,40.997,2.948,49.744,2.948,59.611c0,12.914,10.506,23.42,23.42,23.42h47.264c12.914,0,23.42-10.506,23.42-23.42  c0-11.522-8.187-21.12-19.337-23.058c-2.525-5.707-8.137-9.42-14.52-9.42c-0.837,0-1.669,0.065-2.491,0.196  C56.35,21.083,49.18,17.287,41.492,17.287L41.492,17.287z"></path><path d="M35.769,51.242l-6.636,6.636c-0.503,0.501-0.814,1.195-0.814,1.96c0,0.764,0.31,1.454,0.81,1.955  c0,0.001,0.001,0.001,0.001,0.002l6.64,6.639c1.081,1.081,2.834,1.081,3.914,0c1.082-1.081,1.082-2.78,0-3.862l-1.912-1.856h16.438  c1.528,0,2.768-1.239,2.768-2.768c0-1.529-1.239-2.769-2.768-2.769H37.77l1.913-1.967c0.541-0.54,0.812-1.276,0.812-1.984  c0-0.707-0.271-1.43-0.812-1.971C38.603,50.176,36.85,50.163,35.769,51.242z"></path><path d="M64.289,60.138l6.636-6.636c0.503-0.501,0.814-1.195,0.814-1.96c0-0.764-0.31-1.454-0.81-1.955  c0-0.001-0.001-0.001-0.001-0.002l-6.64-6.639c-1.081-1.081-2.834-1.081-3.914,0c-1.082,1.081-1.082,2.78,0,3.862l1.912,1.856H45.85  c-1.529,0-2.768,1.239-2.768,2.768c0,1.529,1.238,2.769,2.768,2.769h16.438l-1.913,1.967c-0.541,0.54-0.812,1.277-0.812,1.984  s0.271,1.43,0.812,1.971C61.455,61.204,63.208,61.217,64.289,60.138z"></path></g>
</svg>
</g><g opacity="1" transform="rotate(0 548.5483 254.9834)">
<svg width="248.7159" height="68.7394" x="548.5483" y="254.9834" version="1.1" preserveAspectRatio="none" viewBox="0.7813 -28.0078 286.46479999999997 79.1679">
  <g transform="matrix(1 0 0 1 0 0)" class="companyName"><path id="id-D6z1nYkh17" d="M10.47-28.01L10.47 0L5.37 0L5.37-22.93L0.78-22.93L0.78-28.01L10.47-28.01Z M48.40-16.29L48.40-11.72Q48.40-10 47.96-8.47Q47.52-6.93 46.72-5.63Q45.92-4.32 44.82-3.28Q43.73-2.25 42.43-1.51Q41.13-0.78 39.67-0.39Q38.20 0 36.68 0L36.68 0L27.52 0Q25.98 0 24.51-0.39Q23.05-0.78 21.75-1.51Q20.45-2.25 19.36-3.28Q18.26-4.32 17.47-5.63Q16.68-6.93 16.24-8.47Q15.80-10 15.80-11.72L15.80-11.72L15.80-16.29Q15.80-18.87 16.77-21.02Q17.73-23.16 19.36-24.72Q20.98-26.27 23.10-27.14Q25.21-28.01 27.52-28.01L27.52-28.01L36.68-28.01Q38.20-28.01 39.67-27.62Q41.13-27.23 42.43-26.49Q43.73-25.76 44.82-24.73Q45.92-23.69 46.72-22.38Q47.52-21.07 47.96-19.54Q48.40-18.01 48.40-16.29L48.40-16.29ZM43.28-11.72L43.28-16.29Q43.28-17.79 42.73-19.02Q42.19-20.25 41.28-21.13Q40.37-22.01 39.18-22.48Q37.99-22.95 36.68-22.93L36.68-22.93L27.52-22.93Q26.25-22.95 25.05-22.49Q23.85-22.03 22.92-21.16Q21.99-20.29 21.44-19.05Q20.88-17.81 20.88-16.29L20.88-16.29L20.88-11.72Q20.88-10.20 21.43-8.96Q21.97-7.73 22.89-6.87Q23.81-6.00 25.01-5.53Q26.21-5.06 27.52-5.08L27.52-5.08L36.68-5.08Q38.18-5.08 39.40-5.58Q40.63-6.07 41.48-6.95Q42.34-7.83 42.81-9.05Q43.28-10.27 43.28-11.72L43.28-11.72ZM41.07-20L41.07-20Q41.37-19.57 41.46-19.07Q41.56-18.57 41.46-18.10Q41.37-17.62 41.08-17.20Q40.80-16.78 40.35-16.48L40.35-16.48L26.64-7.32Q26.31-7.07 25.96-6.97Q25.61-6.88 25.23-6.88L25.23-6.88Q24.61-6.88 24.04-7.17Q23.48-7.46 23.13-8.01L23.13-8.01Q22.83-8.44 22.73-8.94Q22.64-9.43 22.72-9.91Q22.81-10.39 23.09-10.81Q23.36-11.23 23.81-11.52L23.81-11.52L37.56-20.68Q37.99-20.98 38.49-21.07Q38.98-21.17 39.46-21.07Q39.94-20.98 40.36-20.70Q40.78-20.43 41.07-20Z M71.17-16.29L71.17-11.72L52.85-11.72L52.85-16.29L71.17-16.29Z M101.23-5.08L101.23 0L75.51 0L75.51-9.39Q75.51-10.12 75.67-10.93Q75.84-11.74 76.19-12.54Q76.54-13.34 77.10-14.06Q77.66-14.79 78.45-15.34Q79.24-15.90 80.27-16.23Q81.31-16.56 82.62-16.56L82.62-16.56L94.06-16.56Q95.10-16.56 95.60-17.08Q96.09-17.60 96.09-18.59L96.09-18.59L96.09-20.84Q96.09-21.88 95.59-22.40Q95.08-22.93 94.10-22.93L94.10-22.93L77.79-22.93L77.79-28.01L94.10-28.01Q95.39-28.01 96.43-27.68Q97.46-27.34 98.25-26.79Q99.04-26.23 99.61-25.51Q100.18-24.79 100.54-23.99Q100.90-23.20 101.06-22.39Q101.23-21.58 101.23-20.88L101.23-20.88L101.23-18.59Q101.23-16.62 100.52-15.26Q99.80-13.91 98.73-13.06Q97.66-12.21 96.42-11.83Q95.18-11.45 94.10-11.45L94.10-11.45L82.62-11.45Q81.99-11.45 81.62-11.27Q81.25-11.09 81.04-10.80Q80.84-10.51 80.74-10.14Q80.64-9.77 80.59-9.39L80.59-9.39L80.59-5.08L101.23-5.08Z M138.36-16.29L138.36-11.72Q138.36-10 137.92-8.47Q137.48-6.93 136.68-5.63Q135.88-4.32 134.79-3.28Q133.69-2.25 132.39-1.51Q131.09-0.78 129.63-0.39Q128.16 0 126.64 0L126.64 0L117.48 0Q115.94 0 114.47-0.39Q113.01-0.78 111.71-1.51Q110.41-2.25 109.32-3.28Q108.22-4.32 107.43-5.63Q106.64-6.93 106.20-8.47Q105.76-10 105.76-11.72L105.76-11.72L105.76-16.29Q105.76-18.87 106.73-21.02Q107.70-23.16 109.32-24.72Q110.94-26.27 113.06-27.14Q115.18-28.01 117.48-28.01L117.48-28.01L126.64-28.01Q128.16-28.01 129.63-27.62Q131.09-27.23 132.39-26.49Q133.69-25.76 134.79-24.73Q135.88-23.69 136.68-22.38Q137.48-21.07 137.92-19.54Q138.36-18.01 138.36-16.29L138.36-16.29ZM133.24-11.72L133.24-16.29Q133.24-17.79 132.70-19.02Q132.15-20.25 131.24-21.13Q130.33-22.01 129.14-22.48Q127.95-22.95 126.64-22.93L126.64-22.93L117.48-22.93Q116.21-22.95 115.01-22.49Q113.81-22.03 112.88-21.16Q111.95-20.29 111.40-19.05Q110.84-17.81 110.84-16.29L110.84-16.29L110.84-11.72Q110.84-10.20 111.39-8.96Q111.93-7.73 112.85-6.87Q113.77-6.00 114.97-5.53Q116.17-5.06 117.48-5.08L117.48-5.08L126.64-5.08Q128.14-5.08 129.37-5.58Q130.59-6.07 131.45-6.95Q132.30-7.83 132.77-9.05Q133.24-10.27 133.24-11.72L133.24-11.72ZM131.04-20L131.04-20Q131.33-19.57 131.43-19.07Q131.52-18.57 131.43-18.10Q131.33-17.62 131.04-17.20Q130.76-16.78 130.31-16.48L130.31-16.48L116.60-7.32Q116.27-7.07 115.92-6.97Q115.57-6.88 115.20-6.88L115.20-6.88Q114.57-6.88 114.00-7.17Q113.44-7.46 113.09-8.01L113.09-8.01Q112.79-8.44 112.70-8.94Q112.60-9.43 112.69-9.91Q112.77-10.39 113.05-10.81Q113.32-11.23 113.77-11.52L113.77-11.52L127.52-20.68Q127.95-20.98 128.45-21.07Q128.95-21.17 129.42-21.07Q129.90-20.98 130.32-20.70Q130.74-20.43 131.04-20Z M28.26 13.99L28.26 19.07L17.07 19.07L17.07 42L11.99 42L11.99 19.07L0.78 19.07L0.78 13.99L28.26 13.99Z M51.91 27.88L51.91 27.88Q51.91 28.93 51.54 30.15Q51.17 31.38 50.34 32.42Q49.51 33.46 48.17 34.17Q46.84 34.87 44.92 34.87L44.92 34.87L35.76 34.87L35.76 30.05L44.92 30.05Q45.96 30.05 46.52 29.41Q47.09 28.78 47.09 27.84L47.09 27.84Q47.09 26.84 46.46 26.28Q45.82 25.71 44.92 25.71L44.92 25.71L35.76 25.71Q34.73 25.71 34.16 26.35Q33.59 26.98 33.59 27.92L33.59 27.92L33.59 35.01Q33.59 36.02 34.23 36.59Q34.86 37.16 35.80 37.16L35.80 37.16L44.92 37.16L44.92 42L35.76 42Q34.71 42 33.49 41.63Q32.27 41.26 31.22 40.43Q30.18 39.60 29.47 38.26Q28.77 36.92 28.77 35.01L28.77 35.01L28.77 27.88Q28.77 26.82 29.14 25.60Q29.51 24.38 30.34 23.34Q31.17 22.29 32.51 21.59Q33.85 20.89 35.76 20.89L35.76 20.89L44.92 20.89Q45.98 20.89 47.20 21.26Q48.42 21.63 49.46 22.46Q50.51 23.29 51.21 24.63Q51.91 25.96 51.91 27.88Z M75.78 36.92L75.78 42L62.01 42Q60.96 42 59.71 41.63Q58.46 41.26 57.39 40.41Q56.33 39.56 55.62 38.20Q54.90 36.84 54.90 34.87L54.90 34.87L54.90 28.00Q54.90 27.27 55.07 26.47Q55.23 25.67 55.59 24.88Q55.94 24.09 56.49 23.37Q57.05 22.64 57.84 22.10Q58.63 21.55 59.67 21.22Q60.70 20.89 62.01 20.89L62.01 20.89L75.78 20.89L75.78 25.96L62.01 25.96Q61.02 25.96 60.50 26.47Q59.98 26.98 59.98 28.04L59.98 28.04L59.98 34.87Q59.98 35.87 60.51 36.39Q61.04 36.92 62.05 36.92L62.05 36.92L75.78 36.92Z M103.46 28.00L103.46 42L98.38 42L98.38 28.00Q98.38 27 97.87 26.48Q97.36 25.96 96.35 25.96L96.35 25.96L87.19 25.96L87.19 20.89L96.35 20.89Q97.07 20.89 97.87 21.05Q98.67 21.22 99.46 21.57Q100.25 21.92 100.98 22.48Q101.70 23.04 102.25 23.83Q102.79 24.62 103.13 25.65Q103.46 26.69 103.46 28.00L103.46 28.00ZM85.14 11.96L85.14 42L80.06 42L80.06 11.96L85.14 11.96Z M131.50 30.28L131.50 42L126.43 42L126.43 30.28Q126.43 29.29 126.08 28.49Q125.74 27.70 125.16 27.14Q124.57 26.57 123.78 26.27Q122.99 25.96 122.07 25.96L122.07 25.96L113.18 25.96L113.18 42L108.11 42L108.11 23.41Q108.11 22.88 108.30 22.42Q108.50 21.96 108.85 21.62Q109.20 21.28 109.67 21.08Q110.14 20.89 110.66 20.89L110.66 20.89L122.11 20.89Q123.07 20.89 124.13 21.10Q125.20 21.32 126.24 21.79Q127.29 22.27 128.23 23.01Q129.18 23.74 129.91 24.78Q130.64 25.83 131.07 27.20Q131.50 28.56 131.50 30.28L131.50 30.28Z M158.93 28.00L158.93 34.87Q158.93 36.18 158.59 37.22Q158.26 38.27 157.71 39.06Q157.17 39.85 156.45 40.41Q155.72 40.96 154.93 41.32Q154.14 41.67 153.33 41.83Q152.52 42 151.80 42L151.80 42L142.64 42Q141.58 42 140.33 41.63Q139.08 41.26 138.02 40.41Q136.95 39.56 136.24 38.20Q135.53 36.84 135.53 34.87L135.53 34.87L135.53 28.00Q135.53 26.04 136.24 24.69Q136.95 23.33 138.02 22.48Q139.08 21.63 140.33 21.26Q141.58 20.89 142.64 20.89L142.64 20.89L151.80 20.89Q153.75 20.89 155.12 21.59Q156.48 22.29 157.32 23.36Q158.16 24.42 158.54 25.67Q158.93 26.92 158.93 28.00L158.93 28.00ZM153.85 34.87L153.85 28.04Q153.85 26.98 153.32 26.47Q152.79 25.96 151.80 25.96L151.80 25.96L142.68 25.96Q141.66 25.96 141.13 26.48Q140.61 27 140.61 28.00L140.61 28.00L140.61 34.87Q140.61 35.87 141.13 36.39Q141.66 36.92 142.68 36.92L142.68 36.92L151.80 36.92Q152.83 36.92 153.34 36.39Q153.85 35.87 153.85 34.87L153.85 34.87Z M172.52 36.92L172.52 42L170.25 42Q169.16 42 167.92 41.63Q166.68 41.26 165.61 40.41Q164.53 39.56 163.83 38.20Q163.13 36.84 163.13 34.87L163.13 34.87L163.13 11.96L168.20 11.96L168.20 34.87Q168.20 35.81 168.79 36.37Q169.38 36.92 170.25 36.92L170.25 36.92L172.52 36.92Z M198.75 28.00L198.75 34.87Q198.75 36.18 198.42 37.22Q198.09 38.27 197.54 39.06Q196.99 39.85 196.27 40.41Q195.55 40.96 194.76 41.32Q193.96 41.67 193.15 41.83Q192.34 42 191.62 42L191.62 42L182.46 42Q181.41 42 180.16 41.63Q178.91 41.26 177.84 40.41Q176.78 39.56 176.06 38.20Q175.35 36.84 175.35 34.87L175.35 34.87L175.35 28.00Q175.35 26.04 176.06 24.69Q176.78 23.33 177.84 22.48Q178.91 21.63 180.16 21.26Q181.41 20.89 182.46 20.89L182.46 20.89L191.62 20.89Q193.57 20.89 194.94 21.59Q196.31 22.29 197.15 23.36Q197.99 24.42 198.37 25.67Q198.75 26.92 198.75 28.00L198.75 28.00ZM193.67 34.87L193.67 28.04Q193.67 26.98 193.14 26.47Q192.62 25.96 191.62 25.96L191.62 25.96L182.50 25.96Q181.48 25.96 180.96 26.48Q180.43 27 180.43 28.00L180.43 28.00L180.43 34.87Q180.43 35.87 180.96 36.39Q181.48 36.92 182.50 36.92L182.50 36.92L191.62 36.92Q192.66 36.92 193.16 36.39Q193.67 35.87 193.67 34.87L193.67 34.87Z M226.04 28.00L226.04 44.03Q226.04 45.34 225.70 46.38Q225.37 47.43 224.82 48.22Q224.28 49.01 223.55 49.57Q222.83 50.13 222.04 50.48Q221.25 50.83 220.44 50.99Q219.63 51.16 218.91 51.16L218.91 51.16L209.75 51.16L209.75 46.08L218.91 46.08Q219.94 46.08 220.45 45.55Q220.96 45.03 220.96 44.03L220.96 44.03L220.96 28.00Q220.96 27 220.45 26.48Q219.94 25.96 218.91 25.96L218.91 25.96L209.75 25.96Q208.81 25.96 208.26 26.54Q207.71 27.12 207.71 28.00L207.71 28.00L207.71 34.87Q207.71 35.87 208.24 36.39Q208.77 36.92 209.79 36.92L209.79 36.92L218.91 36.92L218.91 42L209.75 42Q209.02 42 208.22 41.83Q207.42 41.67 206.63 41.32Q205.84 40.96 205.12 40.41Q204.39 39.85 203.85 39.06Q203.30 38.27 202.97 37.22Q202.64 36.18 202.64 34.87L202.64 34.87L202.64 28.00Q202.64 27.27 202.80 26.47Q202.97 25.67 203.32 24.88Q203.67 24.09 204.23 23.37Q204.79 22.64 205.58 22.10Q206.37 21.55 207.40 21.22Q208.44 20.89 209.75 20.89L209.75 20.89L218.91 20.89Q219.63 20.89 220.44 21.05Q221.25 21.22 222.04 21.57Q222.83 21.92 223.55 22.48Q224.28 23.04 224.82 23.83Q225.37 24.62 225.70 25.65Q226.04 26.69 226.04 28.00L226.04 28.00Z M235.84 11.96L235.84 16.55L230.76 16.55L230.76 11.96L235.84 11.96ZM235.84 20.89L235.84 42L230.76 42L230.76 20.89L235.84 20.89Z M263.42 27.88L263.42 27.88Q263.42 28.93 263.05 30.15Q262.68 31.38 261.85 32.42Q261.02 33.46 259.68 34.17Q258.34 34.87 256.43 34.87L256.43 34.87L247.27 34.87L247.27 30.05L256.43 30.05Q257.46 30.05 258.03 29.41Q258.59 28.78 258.59 27.84L258.59 27.84Q258.59 26.84 257.96 26.28Q257.32 25.71 256.43 25.71L256.43 25.71L247.27 25.71Q246.23 25.71 245.66 26.35Q245.10 26.98 245.10 27.92L245.10 27.92L245.10 35.01Q245.10 36.02 245.73 36.59Q246.37 37.16 247.30 37.16L247.30 37.16L256.43 37.16L256.43 42L247.27 42Q246.21 42 244.99 41.63Q243.77 41.26 242.72 40.43Q241.68 39.60 240.98 38.26Q240.27 36.92 240.27 35.01L240.27 35.01L240.27 27.88Q240.27 26.82 240.64 25.60Q241.02 24.38 241.85 23.34Q242.68 22.29 244.01 21.59Q245.35 20.89 247.27 20.89L247.27 20.89L256.43 20.89Q257.48 20.89 258.70 21.26Q259.92 21.63 260.97 22.46Q262.01 23.29 262.71 24.63Q263.42 25.96 263.42 27.88Z M287.25 34.87L287.25 34.87Q287.25 36.18 286.91 37.22Q286.58 38.27 286.04 39.06Q285.49 39.85 284.77 40.41Q284.04 40.96 283.25 41.32Q282.46 41.67 281.65 41.83Q280.84 42 280.12 42L280.12 42L266.37 42L266.37 36.92L280.08 36.92Q281.11 36.92 281.64 36.39Q282.17 35.87 282.17 34.87L282.17 34.87Q282.07 32.84 280.12 32.84L280.12 32.84L272.25 32.84Q270.57 32.84 269.39 32.25Q268.22 31.67 267.49 30.79Q266.76 29.91 266.44 28.89Q266.11 27.88 266.11 27L266.11 27Q266.11 25.30 266.72 24.14Q267.32 22.98 268.24 22.25Q269.16 21.53 270.23 21.21Q271.31 20.89 272.25 20.89L272.25 20.89L284.73 20.89L284.73 25.96L272.29 25.96Q271.89 25.96 271.67 26.05Q271.45 26.14 271.34 26.29Q271.23 26.43 271.21 26.60Q271.19 26.77 271.19 26.92L271.19 26.92Q271.21 27.23 271.31 27.41Q271.41 27.59 271.55 27.66Q271.70 27.74 271.88 27.75Q272.07 27.76 272.25 27.76L272.25 27.76L280.12 27.76Q282.07 27.76 283.44 28.46Q284.80 29.17 285.64 30.23Q286.48 31.30 286.87 32.55Q287.25 33.80 287.25 34.87Z"/></g>
</svg>
</g><g opacity="1" transform="rotate(0 528.1771 246.2529)">
<svg width="1.7461" height="107.0941" x="528.1771" y="246.2529" version="1.1" preserveAspectRatio="none" viewBox="0 0 1.7461 107.0941">
  <rect x="0" y="0" width="1.7461" height="107.0941" class="companyName shapeStroke-str" style="stroke-width:0;" rx="0px" ry="0px" />
</svg>
</g><g opacity="1" transform="rotate(0 548.5483 334.1399)">
<svg width="172.9647" height="10.4766" x="548.5483" y="334.1399" version="1.1" preserveAspectRatio="none" viewBox="4.56 -29.68 621.5600000000001 37.64">
  <g transform="matrix(1 0 0 1 0 0)" class="text"><path id="id-D-YM9nyY431" d="M4.56 0L4.56-28L15.96-28Q20.40-28 23.80-26.22Q27.20-24.44 29.08-21.26Q30.96-18.08 30.96-14L30.96-14Q30.96-9.92 29.08-6.74Q27.20-3.56 23.80-1.78Q20.40 0 15.96 0L15.96 0L4.56 0ZM7.52-2.56L15.80-2.56Q19.48-2.56 22.24-4.02Q25-5.48 26.52-8.06Q28.04-10.64 28.04-14L28.04-14Q28.04-17.36 26.52-19.94Q25-22.52 22.24-23.98Q19.48-25.44 15.80-25.44L15.80-25.44L7.52-25.44L7.52-2.56Z M38.20 0L38.20-21.04L41.04-21.04L41.04 0L38.20 0ZM39.64-25.64Q38.76-25.64 38.16-26.24Q37.56-26.84 37.56-27.68L37.56-27.68Q37.56-28.48 38.16-29.08Q38.76-29.68 39.64-29.68L39.64-29.68Q40.52-29.68 41.12-29.10Q41.72-28.52 41.72-27.72L41.72-27.72Q41.72-26.84 41.12-26.24Q40.52-25.64 39.64-25.64L39.64-25.64Z M66.92-21.04L69.64-21.04L69.64-2.56Q69.64 2.80 67.02 5.38Q64.40 7.96 59.12 7.96L59.12 7.96Q56.20 7.96 53.58 7.10Q50.96 6.24 49.32 4.72L49.32 4.72L50.76 2.56Q52.28 3.92 54.46 4.68Q56.64 5.44 59.04 5.44L59.04 5.44Q63.04 5.44 64.92 3.58Q66.80 1.72 66.80-2.20L66.80-2.20L66.80-4.88Q65.48-2.88 63.34-1.84Q61.20-0.80 58.60-0.80L58.60-0.80Q55.64-0.80 53.22-2.10Q50.80-3.40 49.42-5.74Q48.04-8.08 48.04-11.04L48.04-11.04Q48.04-14 49.42-16.32Q50.80-18.64 53.20-19.92Q55.60-21.20 58.60-21.20L58.60-21.20Q61.28-21.20 63.44-20.12Q65.60-19.04 66.92-17L66.92-17L66.92-21.04ZM58.88-3.32Q61.16-3.32 63-4.30Q64.84-5.28 65.86-7.04Q66.88-8.80 66.88-11.04L66.88-11.04Q66.88-13.28 65.86-15.02Q64.84-16.76 63.02-17.74Q61.20-18.72 58.88-18.72L58.88-18.72Q56.60-18.72 54.78-17.76Q52.96-16.80 51.94-15.04Q50.92-13.28 50.92-11.04L50.92-11.04Q50.92-8.80 51.94-7.04Q52.96-5.28 54.78-4.30Q56.60-3.32 58.88-3.32L58.88-3.32Z M78.80 0L78.80-21.04L81.64-21.04L81.64 0L78.80 0ZM80.24-25.64Q79.36-25.64 78.76-26.24Q78.16-26.84 78.16-27.68L78.16-27.68Q78.16-28.48 78.76-29.08Q79.36-29.68 80.24-29.68L80.24-29.68Q81.12-29.68 81.72-29.10Q82.32-28.52 82.32-27.72L82.32-27.72Q82.32-26.84 81.72-26.24Q81.12-25.64 80.24-25.64L80.24-25.64Z M100.84-3.32L101.84-1.28Q101.04-0.56 99.86-0.18Q98.68 0.20 97.40 0.20L97.40 0.20Q94.44 0.20 92.84-1.40Q91.24-3 91.24-5.92L91.24-5.92L91.24-18.64L87.48-18.64L87.48-21.04L91.24-21.04L91.24-25.64L94.08-25.64L94.08-21.04L100.48-21.04L100.48-18.64L94.08-18.64L94.08-6.08Q94.08-4.20 95.02-3.22Q95.96-2.24 97.72-2.24L97.72-2.24Q98.60-2.24 99.42-2.52Q100.24-2.80 100.84-3.32L100.84-3.32Z M115.56-21.20Q119.68-21.20 121.88-19.14Q124.08-17.08 124.08-13.04L124.08-13.04L124.08 0L121.36 0L121.36-3.28Q120.40-1.64 118.54-0.72Q116.68 0.20 114.12 0.20L114.12 0.20Q110.60 0.20 108.52-1.48Q106.44-3.16 106.44-5.92L106.44-5.92Q106.44-8.60 108.38-10.24Q110.32-11.88 114.56-11.88L114.56-11.88L121.24-11.88L121.24-13.16Q121.24-15.88 119.72-17.30Q118.20-18.72 115.28-18.72L115.28-18.72Q113.28-18.72 111.44-18.06Q109.60-17.40 108.28-16.24L108.28-16.24L107.00-18.36Q108.60-19.72 110.84-20.46Q113.08-21.20 115.56-21.20L115.56-21.20ZM114.56-2.04Q116.96-2.04 118.68-3.14Q120.40-4.24 121.24-6.32L121.24-6.32L121.24-9.76L114.64-9.76Q109.24-9.76 109.24-6L109.24-6Q109.24-4.16 110.64-3.10Q112.04-2.04 114.56-2.04L114.56-2.04Z M133.00 0L133.00-29.68L135.84-29.68L135.84 0L133.00 0Z M144.96 0L144.96-21.04L147.80-21.04L147.80 0L144.96 0ZM146.40-25.64Q145.52-25.64 144.92-26.24Q144.32-26.84 144.32-27.68L144.32-27.68Q144.32-28.48 144.92-29.08Q145.52-29.68 146.40-29.68L146.40-29.68Q147.28-29.68 147.88-29.10Q148.48-28.52 148.48-27.72L148.48-27.72Q148.48-26.84 147.88-26.24Q147.28-25.64 146.40-25.64L146.40-25.64Z M162.56 0.20Q160.00 0.20 157.66-0.54Q155.32-1.28 154.00-2.40L154.00-2.40L155.28-4.64Q156.60-3.60 158.60-2.94Q160.60-2.28 162.76-2.28L162.76-2.28Q165.64-2.28 167.02-3.18Q168.40-4.08 168.40-5.72L168.40-5.72Q168.40-6.88 167.64-7.54Q166.88-8.20 165.72-8.54Q164.56-8.88 162.64-9.20L162.64-9.20Q160.08-9.68 158.52-10.18Q156.96-10.68 155.86-11.88Q154.76-13.08 154.76-15.20L154.76-15.20Q154.76-17.84 156.96-19.52Q159.16-21.20 163.08-21.20L163.08-21.20Q165.12-21.20 167.16-20.66Q169.20-20.12 170.52-19.24L170.52-19.24L169.28-16.96Q166.68-18.76 163.08-18.76L163.08-18.76Q160.36-18.76 158.98-17.80Q157.60-16.84 157.60-15.28L157.60-15.28Q157.60-14.08 158.38-13.36Q159.16-12.64 160.32-12.30Q161.48-11.96 163.52-11.60L163.52-11.60Q166.04-11.12 167.56-10.64Q169.08-10.16 170.16-9Q171.24-7.84 171.24-5.80L171.24-5.80Q171.24-3.04 168.94-1.42Q166.64 0.20 162.56 0.20L162.56 0.20Z M186.28 0.20Q183.24 0.20 180.80-1.18Q178.36-2.56 176.96-5Q175.56-7.44 175.56-10.52L175.56-10.52Q175.56-13.60 176.96-16.04Q178.36-18.48 180.80-19.84Q183.24-21.20 186.28-21.20L186.28-21.20Q189.32-21.20 191.76-19.84Q194.20-18.48 195.58-16.04Q196.96-13.60 196.96-10.52L196.96-10.52Q196.96-7.44 195.58-5Q194.20-2.56 191.76-1.18Q189.32 0.20 186.28 0.20L186.28 0.20ZM186.28-2.32Q188.52-2.32 190.30-3.34Q192.08-4.36 193.08-6.24Q194.08-8.12 194.08-10.52L194.08-10.52Q194.08-12.92 193.08-14.80Q192.08-16.68 190.30-17.70Q188.52-18.72 186.28-18.72L186.28-18.72Q184.04-18.72 182.26-17.70Q180.48-16.68 179.46-14.80Q178.44-12.92 178.44-10.52L178.44-10.52Q178.44-8.12 179.46-6.24Q180.48-4.36 182.26-3.34Q184.04-2.32 186.28-2.32L186.28-2.32Z M214.68-21.20Q218.64-21.20 220.98-18.90Q223.32-16.60 223.32-12.20L223.32-12.20L223.32 0L220.48 0L220.48-11.92Q220.48-15.20 218.84-16.92Q217.20-18.64 214.16-18.64L214.16-18.64Q210.76-18.64 208.78-16.62Q206.80-14.60 206.80-11.04L206.80-11.04L206.80 0L203.96 0L203.96-21.04L206.68-21.04L206.68-17.16Q207.84-19.08 209.90-20.14Q211.96-21.20 214.68-21.20L214.68-21.20Z M237.88 0.20Q235.32 0.20 232.98-0.54Q230.64-1.28 229.32-2.40L229.32-2.40L230.60-4.64Q231.92-3.60 233.92-2.94Q235.92-2.28 238.08-2.28L238.08-2.28Q240.96-2.28 242.34-3.18Q243.72-4.08 243.72-5.72L243.72-5.72Q243.72-6.88 242.96-7.54Q242.20-8.20 241.04-8.54Q239.88-8.88 237.96-9.20L237.96-9.20Q235.40-9.68 233.84-10.18Q232.28-10.68 231.18-11.88Q230.08-13.08 230.08-15.20L230.08-15.20Q230.08-17.84 232.28-19.52Q234.48-21.20 238.40-21.20L238.40-21.20Q240.44-21.20 242.48-20.66Q244.52-20.12 245.84-19.24L245.84-19.24L244.60-16.96Q242.00-18.76 238.40-18.76L238.40-18.76Q235.68-18.76 234.30-17.80Q232.92-16.84 232.92-15.28L232.92-15.28Q232.92-14.08 233.70-13.36Q234.48-12.64 235.64-12.30Q236.80-11.96 238.84-11.60L238.84-11.60Q241.36-11.12 242.88-10.64Q244.40-10.16 245.48-9Q246.56-7.84 246.56-5.80L246.56-5.80Q246.56-3.04 244.26-1.42Q241.96 0.20 237.88 0.20L237.88 0.20Z M283.04-10.52L283-9.64L265.40-9.64Q265.64-6.36 267.92-4.34Q270.20-2.32 273.68-2.32L273.68-2.32Q275.64-2.32 277.28-3.02Q278.92-3.72 280.12-5.08L280.12-5.08L281.72-3.24Q280.32-1.56 278.22-0.68Q276.12 0.20 273.60 0.20L273.60 0.20Q270.36 0.20 267.86-1.18Q265.36-2.56 263.96-5Q262.56-7.44 262.56-10.52L262.56-10.52Q262.56-13.60 263.90-16.04Q265.24-18.48 267.58-19.84Q269.92-21.20 272.84-21.20L272.84-21.20Q275.76-21.20 278.08-19.84Q280.40-18.48 281.72-16.06Q283.04-13.64 283.04-10.52L283.04-10.52ZM272.84-18.76Q269.80-18.76 267.74-16.82Q265.68-14.88 265.40-11.76L265.40-11.76L280.32-11.76Q280.04-14.88 277.98-16.82Q275.92-18.76 272.84-18.76L272.84-18.76Z M300.76-21.20Q304.72-21.20 307.06-18.90Q309.40-16.60 309.40-12.20L309.40-12.20L309.40 0L306.56 0L306.56-11.92Q306.56-15.20 304.92-16.92Q303.28-18.64 300.24-18.64L300.24-18.64Q296.84-18.64 294.86-16.62Q292.88-14.60 292.88-11.04L292.88-11.04L292.88 0L290.04 0L290.04-21.04L292.76-21.04L292.76-17.16Q293.92-19.08 295.98-20.14Q298.04-21.20 300.76-21.20L300.76-21.20Z M340.08-3.32L341.08-1.28Q340.28-0.56 339.10-0.18Q337.92 0.20 336.64 0.20L336.64 0.20Q333.68 0.20 332.08-1.40Q330.48-3 330.48-5.92L330.48-5.92L330.48-18.64L326.72-18.64L326.72-21.04L330.48-21.04L330.48-25.64L333.32-25.64L333.32-21.04L339.72-21.04L339.72-18.64L333.32-18.64L333.32-6.08Q333.32-4.20 334.26-3.22Q335.20-2.24 336.96-2.24L336.96-2.24Q337.84-2.24 338.66-2.52Q339.48-2.80 340.08-3.32L340.08-3.32Z M355.28 0.20Q352.24 0.20 349.80-1.18Q347.36-2.56 345.96-5Q344.56-7.44 344.56-10.52L344.56-10.52Q344.56-13.60 345.96-16.04Q347.36-18.48 349.80-19.84Q352.24-21.20 355.28-21.20L355.28-21.20Q358.32-21.20 360.76-19.84Q363.20-18.48 364.58-16.04Q365.96-13.60 365.96-10.52L365.96-10.52Q365.96-7.44 364.58-5Q363.20-2.56 360.76-1.18Q358.32 0.20 355.28 0.20L355.28 0.20ZM355.28-2.32Q357.52-2.32 359.30-3.34Q361.08-4.36 362.08-6.24Q363.08-8.12 363.08-10.52L363.08-10.52Q363.08-12.92 362.08-14.80Q361.08-16.68 359.30-17.70Q357.52-18.72 355.28-18.72L355.28-18.72Q353.04-18.72 351.26-17.70Q349.48-16.68 348.46-14.80Q347.44-12.92 347.44-10.52L347.44-10.52Q347.44-8.12 348.46-6.24Q349.48-4.36 351.26-3.34Q353.04-2.32 355.28-2.32L355.28-2.32Z M389.08-21.04L391.92-21.04L391.92 0L389.20 0L389.20-3.84Q388.08-1.92 386.12-0.86Q384.16 0.20 381.64 0.20L381.64 0.20Q377.52 0.20 375.14-2.10Q372.76-4.40 372.76-8.84L372.76-8.84L372.76-21.04L375.60-21.04L375.60-9.12Q375.60-5.80 377.24-4.08Q378.88-2.36 381.92-2.36L381.92-2.36Q385.24-2.36 387.16-4.38Q389.08-6.40 389.08-10L389.08-10L389.08-21.04Z M411.16-3.32L412.16-1.28Q411.36-0.56 410.18-0.18Q409.00 0.20 407.72 0.20L407.72 0.20Q404.76 0.20 403.16-1.40Q401.56-3 401.56-5.92L401.56-5.92L401.56-18.64L397.80-18.64L397.80-21.04L401.56-21.04L401.56-25.64L404.40-25.64L404.40-21.04L410.80-21.04L410.80-18.64L404.40-18.64L404.40-6.08Q404.40-4.20 405.34-3.22Q406.28-2.24 408.04-2.24L408.04-2.24Q408.92-2.24 409.74-2.52Q410.56-2.80 411.16-3.32L411.16-3.32Z M436.12-10.52L436.08-9.64L418.48-9.64Q418.72-6.36 421.00-4.34Q423.28-2.32 426.76-2.32L426.76-2.32Q428.72-2.32 430.36-3.02Q432.00-3.72 433.20-5.08L433.20-5.08L434.80-3.24Q433.40-1.56 431.30-0.68Q429.20 0.20 426.68 0.20L426.68 0.20Q423.44 0.20 420.94-1.18Q418.44-2.56 417.04-5Q415.64-7.44 415.64-10.52L415.64-10.52Q415.64-13.60 416.98-16.04Q418.32-18.48 420.66-19.84Q423.00-21.20 425.92-21.20L425.92-21.20Q428.84-21.20 431.16-19.84Q433.48-18.48 434.80-16.06Q436.12-13.64 436.12-10.52L436.12-10.52ZM425.92-18.76Q422.88-18.76 420.82-16.82Q418.76-14.88 418.48-11.76L418.48-11.76L433.40-11.76Q433.12-14.88 431.06-16.82Q429.00-18.76 425.92-18.76L425.92-18.76Z M460.44 0.20Q457.88 0.20 455.54-0.54Q453.20-1.28 451.88-2.40L451.88-2.40L453.16-4.64Q454.48-3.60 456.48-2.94Q458.48-2.28 460.64-2.28L460.64-2.28Q463.52-2.28 464.90-3.18Q466.28-4.08 466.28-5.72L466.28-5.72Q466.28-6.88 465.52-7.54Q464.76-8.20 463.60-8.54Q462.44-8.88 460.52-9.20L460.52-9.20Q457.96-9.68 456.40-10.18Q454.84-10.68 453.74-11.88Q452.64-13.08 452.64-15.20L452.64-15.20Q452.64-17.84 454.84-19.52Q457.04-21.20 460.96-21.20L460.96-21.20Q463-21.20 465.04-20.66Q467.08-20.12 468.40-19.24L468.40-19.24L467.16-16.96Q464.56-18.76 460.96-18.76L460.96-18.76Q458.24-18.76 456.86-17.80Q455.48-16.84 455.48-15.28L455.48-15.28Q455.48-14.08 456.26-13.36Q457.04-12.64 458.20-12.30Q459.36-11.96 461.40-11.60L461.40-11.60Q463.92-11.12 465.44-10.64Q466.96-10.16 468.04-9Q469.12-7.84 469.12-5.80L469.12-5.80Q469.12-3.04 466.82-1.42Q464.52 0.20 460.44 0.20L460.44 0.20Z M493.92-10.52L493.88-9.64L476.28-9.64Q476.52-6.36 478.80-4.34Q481.08-2.32 484.56-2.32L484.56-2.32Q486.52-2.32 488.16-3.02Q489.80-3.72 491.00-5.08L491.00-5.08L492.60-3.24Q491.20-1.56 489.10-0.68Q487.00 0.20 484.48 0.20L484.48 0.20Q481.24 0.20 478.74-1.18Q476.24-2.56 474.84-5Q473.44-7.44 473.44-10.52L473.44-10.52Q473.44-13.60 474.78-16.04Q476.12-18.48 478.46-19.84Q480.80-21.20 483.72-21.20L483.72-21.20Q486.64-21.20 488.96-19.84Q491.28-18.48 492.60-16.06Q493.92-13.64 493.92-10.52L493.92-10.52ZM483.72-18.76Q480.68-18.76 478.62-16.82Q476.56-14.88 476.28-11.76L476.28-11.76L491.20-11.76Q490.92-14.88 488.86-16.82Q486.80-18.76 483.72-18.76L483.72-18.76ZM481.12-24.32L486.60-29.28L490.40-29.28L483.92-24.32L481.12-24.32Z M509.64 0.20Q506.52 0.20 504.06-1.16Q501.60-2.52 500.20-4.98Q498.80-7.44 498.80-10.52L498.80-10.52Q498.80-13.60 500.20-16.04Q501.60-18.48 504.06-19.84Q506.52-21.20 509.64-21.20L509.64-21.20Q512.36-21.20 514.50-20.14Q516.64-19.08 517.88-17.04L517.88-17.04L515.76-15.60Q514.72-17.16 513.12-17.94Q511.52-18.72 509.64-18.72L509.64-18.72Q507.36-18.72 505.54-17.70Q503.72-16.68 502.70-14.80Q501.68-12.92 501.68-10.52L501.68-10.52Q501.68-8.08 502.70-6.22Q503.72-4.36 505.54-3.34Q507.36-2.32 509.64-2.32L509.64-2.32Q511.52-2.32 513.12-3.08Q514.72-3.84 515.76-5.40L515.76-5.40L517.88-3.96Q516.64-1.92 514.48-0.86Q512.32 0.20 509.64 0.20L509.64 0.20Z M540.76-21.04L543.60-21.04L543.60 0L540.88 0L540.88-3.84Q539.76-1.92 537.80-0.86Q535.84 0.20 533.32 0.20L533.32 0.20Q529.20 0.20 526.82-2.10Q524.44-4.40 524.44-8.84L524.44-8.84L524.44-21.04L527.28-21.04L527.28-9.12Q527.28-5.80 528.92-4.08Q530.56-2.36 533.60-2.36L533.60-2.36Q536.92-2.36 538.84-4.38Q540.76-6.40 540.76-10L540.76-10L540.76-21.04Z M555.48-16.92Q556.48-19.04 558.46-20.12Q560.44-21.20 563.36-21.20L563.36-21.20L563.36-18.44L562.68-18.48Q559.36-18.48 557.48-16.44Q555.60-14.40 555.60-10.72L555.60-10.72L555.60 0L552.76 0L552.76-21.04L555.48-21.04L555.48-16.92Z M569.68 0L569.68-21.04L572.52-21.04L572.52 0L569.68 0ZM571.12-25.64Q570.24-25.64 569.64-26.24Q569.04-26.84 569.04-27.68L569.04-27.68Q569.04-28.48 569.64-29.08Q570.24-29.68 571.12-29.68L571.12-29.68Q572-29.68 572.60-29.10Q573.20-28.52 573.20-27.72L573.20-27.72Q573.20-26.84 572.60-26.24Q572-25.64 571.12-25.64L571.12-25.64Z M591.72-3.32L592.72-1.28Q591.92-0.56 590.74-0.18Q589.56 0.20 588.28 0.20L588.28 0.20Q585.32 0.20 583.72-1.40Q582.12-3 582.12-5.92L582.12-5.92L582.12-18.64L578.36-18.64L578.36-21.04L582.12-21.04L582.12-25.64L584.96-25.64L584.96-21.04L591.36-21.04L591.36-18.64L584.96-18.64L584.96-6.08Q584.96-4.20 585.90-3.22Q586.84-2.24 588.60-2.24L588.60-2.24Q589.48-2.24 590.30-2.52Q591.12-2.80 591.72-3.32L591.72-3.32Z M616.68-10.52L616.64-9.64L599.04-9.64Q599.28-6.36 601.56-4.34Q603.84-2.32 607.32-2.32L607.32-2.32Q609.28-2.32 610.92-3.02Q612.56-3.72 613.76-5.08L613.76-5.08L615.36-3.24Q613.96-1.56 611.86-0.68Q609.76 0.20 607.24 0.20L607.24 0.20Q604.00 0.20 601.50-1.18Q599.00-2.56 597.60-5Q596.20-7.44 596.20-10.52L596.20-10.52Q596.20-13.60 597.54-16.04Q598.88-18.48 601.22-19.84Q603.56-21.20 606.48-21.20L606.48-21.20Q609.40-21.20 611.72-19.84Q614.04-18.48 615.36-16.06Q616.68-13.64 616.68-10.52L616.68-10.52ZM606.48-18.76Q603.44-18.76 601.38-16.82Q599.32-14.88 599.04-11.76L599.04-11.76L613.96-11.76Q613.68-14.88 611.62-16.82Q609.56-18.76 606.48-18.76L606.48-18.76ZM603.88-24.32L609.36-29.28L613.16-29.28L606.68-24.32L603.88-24.32Z M623.96 0.20Q623.08 0.20 622.46-0.44Q621.84-1.08 621.84-2L621.84-2Q621.84-2.92 622.46-3.54Q623.08-4.16 623.96-4.16L623.96-4.16Q624.84-4.16 625.48-3.54Q626.12-2.92 626.12-2L626.12-2Q626.12-1.08 625.48-0.44Q624.84 0.20 623.96 0.20L623.96 0.20Z"/></g>
</svg>
</g></svg>